{
  "accessors": [
    {
      "bufferView": 2,
      "componentType": 5126,
      "count": 6054,
      "max": [
        0.11884135007858276,
        0.12008670717477798,
        0.11887633055448532
      ],
      "min": [
        -0.11884131282567978,
        -0.12008670717477798,
        1.4126003478054372e-08
      ],
      "type": "VEC3"
    },
    {
      "bufferView": 2,
      "byteOffset": 72648,
      "componentType": 5126,
      "count": 6054,
      "max": [
        0.999961256980896,
        0.9999936819076538,
        0.9999839067459106
      ],
      "min": [
        -0.9999520778656006,
        -0.9999415874481201,
        -0.9887189865112305
      ],
      "type": "VEC3"
    },
    {
      "bufferView": 1,
      "componentType": 5126,
      "count": 6054,
      "max": [
        0.5,
        1.0
      ],
      "min": [
        0.0,
        -1.1920928955078125e-07
      ],
      "type": "VEC2"
    },
    {
      "bufferView": 0,
      "componentType": 5125,
      "count": 30465,
      "type": "SCALAR"
    },
    {
      "bufferView": 2,
      "byteOffset": 145296,
      "componentType": 5126,
      "count": 948,
      "max": [
        0.07451257109642029,
        -0.020599808543920517,
        0.10233374685049057
      ],
      "min": [
        -0.07860062271356583,
        -0.09244760125875473,
        0.04799407720565796
      ],
      "type": "VEC3"
    },
    {
      "bufferView": 2,
      "byteOffset": 156672,
      "componentType": 5126,
      "count": 948,
      "max": [
        0.9993840456008911,
        0.9999978542327881,
        0.9973757266998291
      ],
      "min": [
        -0.9980999231338501,
        -0.9999412298202515,
        -0.5099464058876038
      ],
      "type": "VEC3"
    },
    {
      "bufferView": 1,
      "byteOffset": 48432,
      "componentType": 5126,
      "count": 948,
      "max": [
        0.3437499701976776,
        0.7500005960464478
      ],
      "min": [
        0.1562492698431015,
        0.5624998807907104
      ],
      "type": "VEC2"
    },
    {
      "bufferView": 0,
      "byteOffset": 121860,
      "componentType": 5125,
      "count": 4224,
      "type": "SCALAR"
    },
    {
      "bufferView": 2,
      "byteOffset": 168048,
      "componentType": 5126,
      "count": 674,
      "max": [
        0.023883342742919922,
        0.011754048988223076,
        0.02501058764755726
      ],
      "min": [
        -0.023883342742919922,
        -0.011754048988223076,
        -0.02501058764755726
      ],
      "type": "VEC3"
    },
    {
      "bufferView": 2,
      "byteOffset": 176136,
      "componentType": 5126,
      "count": 674,
      "max": [
        0.9973962306976318,
        0.9998416900634766,
        0.9971524477005005
      ],
      "min": [
        -0.9973962306976318,
        -0.6866298317909241,
        -0.9971524477005005
      ],
      "type": "VEC3"
    },
    {
      "bufferView": 1,
      "byteOffset": 56016,
      "componentType": 5126,
      "count": 674,
      "max": [
        1.0,
        0.9900000095367432
      ],
      "min": [
        0.0,
        0.0
      ],
      "type": "VEC2"
    },
    {
      "bufferView": 0,
      "byteOffset": 138756,
      "componentType": 5125,
      "count": 2484,
      "type": "SCALAR"
    },
    {
      "bufferView": 2,
      "byteOffset": 184224,
      "componentType": 5126,
      "count": 643,
      "max": [
        0.030717749148607254,
        0.025619518011808395,
        0.043097060173749924
      ],
      "min": [
        -0.0468539223074913,
        -0.029329782351851463,
        -0.0347452275454998
      ],
      "type": "VEC3"
    },
    {
      "bufferView": 2,
      "byteOffset": 191940,
      "componentType": 5126,
      "count": 643,
      "max": [
        0.9992023706436157,
        0.9981459975242615,
        0.9345760941505432
      ],
      "min": [
        -0.9290862083435059,
        -0.9392261505126953,
        -0.9937725067138672
      ],
      "type": "VEC3"
    },
    {
      "bufferView": 1,
      "byteOffset": 61408,
      "componentType": 5126,
      "count": 643,
      "max": [
        1.0,
        0.9900000095367432
      ],
      "min": [
        0.0,
        0.0
      ],
      "type": "VEC2"
    },
    {
      "bufferView": 0,
      "byteOffset": 148692,
      "componentType": 5125,
      "count": 2292,
      "type": "SCALAR"
    },
    {
      "bufferView": 2,
      "byteOffset": 199656,
      "componentType": 5126,
      "count": 538,
      "max": [
        0.07322432100772858,
        0.016101930290460587,
        0.016972769051790237
      ],
      "min": [
        -0.07555629312992096,
        -0.015458055771887302,
        -0.018476668745279312
      ],
      "type": "VEC3"
    },
    {
      "bufferView": 2,
      "byteOffset": 206112,
      "componentType": 5126,
      "count": 538,
      "max": [
        0.9973806738853455,
        0.21201561391353607,
        0.9999903440475464
      ],
      "min": [
        -0.9950825572013855,
        -0.9999219179153442,
        -0.9999903440475464
      ],
      "type": "VEC3"
    },
    {
      "bufferView": 1,
      "byteOffset": 66552,
      "componentType": 5126,
      "count": 538,
      "max": [
        0.3437475860118866,
        0.5625354051589966
      ],
      "min": [
        0.15625111758708954,
        0.5624998807907104
      ],
      "type": "VEC2"
    },
    {
      "bufferView": 0,
      "byteOffset": 157860,
      "componentType": 5125,
      "count": 2496,
      "type": "SCALAR"
    },
    {
      "bufferView": 2,
      "byteOffset": 212568,
      "componentType": 5126,
      "count": 1238,
      "max": [
        0.03289644420146942,
        0.008610357530415058,
        0.040782369673252106
      ],
      "min": [
        -0.032848015427589417,
        -0.02610955201089382,
        -0.040128618478775024
      ],
      "type": "VEC3"
    },
    {
      "bufferView": 2,
      "byteOffset": 227424,
      "componentType": 5126,
      "count": 1238,
      "max": [
        0.9986884593963623,
        0.999879002571106,
        0.9880422949790955
      ],
      "min": [
        -0.9990710020065308,
        -0.9998492002487183,
        -0.999954342842102
      ],
      "type": "VEC3"
    },
    {
      "bufferView": 1,
      "byteOffset": 70856,
      "componentType": 5126,
      "count": 1238,
      "max": [
        1.0000001192092896,
        1.0
      ],
      "min": [
        0.0,
        -1.1920928955078125e-07
      ],
      "type": "VEC2"
    },
    {
      "bufferView": 0,
      "byteOffset": 167844,
      "componentType": 5125,
      "count": 6336,
      "type": "SCALAR"
    },
    {
      "bufferView": 2,
      "byteOffset": 242280,
      "componentType": 5126,
      "count": 397,
      "max": [
        0.01134077925235033,
        0.011968839913606644,
        0.004387733060866594
      ],
      "min": [
        -0.01134077925235033,
        -0.011968839913606644,
        -0.004387733992189169
      ],
      "type": "VEC3"
    },
    {
      "bufferView": 2,
      "byteOffset": 247044,
      "componentType": 5126,
      "count": 397,
      "max": [
        1.0,
        1.0,
        1.0
      ],
      "min": [
        -1.0,
        -1.0,
        -1.0
      ],
      "type": "VEC3"
    },
    {
      "bufferView": 1,
      "byteOffset": 80760,
      "componentType": 5126,
      "count": 397,
      "max": [
        1.0000001192092896,
        1.0
      ],
      "min": [
        0.0,
        -1.1920928955078125e-07
      ],
      "type": "VEC2"
    },
    {
      "bufferView": 0,
      "byteOffset": 193188,
      "componentType": 5125,
      "count": 1584,
      "type": "SCALAR"
    },
    {
      "bufferView": 2,
      "byteOffset": 251808,
      "componentType": 5126,
      "count": 397,
      "max": [
        0.009239817038178444,
        0.009751523844897747,
        0.00357487378641963
      ],
      "min": [
        -0.009239817038178444,
        -0.009751523844897747,
        -0.0035748747177422047
      ],
      "type": "VEC3"
    },
    {
      "bufferView": 2,
      "byteOffset": 256572,
      "componentType": 5126,
      "count": 397,
      "max": [
        1.0,
        1.0,
        1.0
      ],
      "min": [
        -1.0,
        -1.0,
        -1.0
      ],
      "type": "VEC3"
    },
    {
      "bufferView": 1,
      "byteOffset": 83936,
      "componentType": 5126,
      "count": 397,
      "max": [
        1.0000001192092896,
        1.0
      ],
      "min": [
        0.0,
        -1.1920928955078125e-07
      ],
      "type": "VEC2"
    },
    {
      "bufferView": 0,
      "byteOffset": 199524,
      "componentType": 5125,
      "count": 1584,
      "type": "SCALAR"
    },
    {
      "bufferView": 2,
      "byteOffset": 261336,
      "componentType": 5126,
      "count": 3353,
      "max": [
        0.25519633293151855,
        0.1744828224182129,
        0.06020117551088333
      ],
      "min": [
        -0.25519633293151855,
        -0.24345093965530396,
        -0.06020117551088333
      ],
      "type": "VEC3"
    },
    {
      "bufferView": 2,
      "byteOffset": 301572,
      "componentType": 5126,
      "count": 3353,
      "max": [
        0.999518096446991,
        0.9997619986534119,
        1.0
      ],
      "min": [
        -0.999518096446991,
        -0.9995178580284119,
        -1.0
      ],
      "type": "VEC3"
    },
    {
      "bufferView": 1,
      "byteOffset": 87112,
      "componentType": 5126,
      "count": 3353,
      "max": [
        0.875,
        1.0
      ],
      "min": [
        0.125,
        0.0
      ],
      "type": "VEC2"
    },
    {
      "bufferView": 0,
      "byteOffset": 205860,
      "componentType": 5125,
      "count": 18276,
      "type": "SCALAR"
    }
  ],
  "asset": {
    "extras": {
      "author": "i.deal3d (https://sketchfab.com/i.deal3d)",
      "license": "CC-BY-4.0 (http://creativecommons.org/licenses/by/4.0/)",
      "source": "https://sketchfab.com/3d-models/smile-icon-message-72d989305cd947a9977963cff30ab4ed",
      "title": "Smile Icon Message"
    },
    "generator": "Sketchfab-12.68.0",
    "version": "2.0"
  },
  "bufferViews": [
    {
      "buffer": 0,
      "byteLength": 278964,
      "name": "floatBufferViews",
      "target": 34963
    },
    {
      "buffer": 0,
      "byteLength": 113936,
      "byteOffset": 278964,
      "byteStride": 8,
      "name": "floatBufferViews",
      "target": 34962
    },
    {
      "buffer": 0,
      "byteLength": 341808,
      "byteOffset": 392900,
      "byteStride": 12,
      "name": "floatBufferViews",
      "target": 34962
    }
  ],
  "buffers": [
    {
      "byteLength": 734708,
      "uri": "scene.bin"
    }
  ],
  "materials": [
    {
      "doubleSided": true,
      "name": "Material.009",
      "pbrMetallicRoughness": {
        "baseColorFactor": [
          1.0,
          0.549478,
          0.0,
          1.0
        ],
        "metallicFactor": 0.0
      }
    },
    {
      "doubleSided": true,
      "name": "lips",
      "pbrMetallicRoughness": {
        "baseColorFactor": [
          0.246193,
          0.0866935,
          0.0597291,
          1.0
        ],
        "metallicFactor": 0.0,
        "roughnessFactor": 0.528037
      }
    },
    {
      "doubleSided": true,
      "name": "brows.001",
      "pbrMetallicRoughness": {
        "baseColorFactor": [
          0.775579,
          0.763863,
          0.787399,
          1.0
        ],
        "metallicFactor": 0.0,
        "roughnessFactor": 0.640187
      }
    },
    {
      "doubleSided": true,
      "name": "Material.014",
      "pbrMetallicRoughness": {
        "baseColorFactor": [
          0.8,
          0.0531328,
          0.146576,
          1.0
        ],
        "metallicFactor": 0.0,
        "roughnessFactor": 0.413462
      }
    },
    {
      "doubleSided": true,
      "name": "Material.015",
      "pbrMetallicRoughness": {
        "baseColorFactor": [
          0.0,
          0.0,
          0.0,
          1.0
        ],
        "metallicFactor": 0.0
      }
    },
    {
      "doubleSided": true,
      "name": "Material",
      "pbrMetallicRoughness": {
        "metallicFactor": 0.0
      }
    }
  ],
  "meshes": [
    {
      "name": "Object_0",
      "primitives": [
        {
          "attributes": {
            "NORMAL": 1,
            "POSITION": 0,
            "TEXCOORD_0": 2
          },
          "indices": 3,
          "material": 0,
          "mode": 4
        }
      ]
    },
    {
      "name": "Object_1",
      "primitives": [
        {
          "attributes": {
            "NORMAL": 5,
            "POSITION": 4,
            "TEXCOORD_0": 6
          },
          "indices": 7,
          "material": 1,
          "mode": 4
        }
      ]
    },
    {
      "name": "Object_2",
      "primitives": [
        {
          "attributes": {
            "NORMAL": 9,
            "POSITION": 8,
            "TEXCOORD_0": 10
          },
          "indices": 11,
          "material": 2,
          "mode": 4
        }
      ]
    },
    {
      "name": "Object_3",
      "primitives": [
        {
          "attributes": {
            "NORMAL": 13,
            "POSITION": 12,
            "TEXCOORD_0": 14
          },
          "indices": 15,
          "material": 2,
          "mode": 4
        }
      ]
    },
    {
      "name": "Object_4",
      "primitives": [
        {
          "attributes": {
            "NORMAL": 17,
            "POSITION": 16,
            "TEXCOORD_0": 18
          },
          "indices": 19,
          "material": 2,
          "mode": 4
        }
      ]
    },
    {
      "name": "Object_5",
      "primitives": [
        {
          "attributes": {
            "NORMAL": 21,
            "POSITION": 20,
            "TEXCOORD_0": 22
          },
          "indices": 23,
          "material": 3,
          "mode": 4
        }
      ]
    },
    {
      "name": "Object_6",
      "primitives": [
        {
          "attributes": {
            "NORMAL": 25,
            "POSITION": 24,
            "TEXCOORD_0": 26
          },
          "indices": 27,
          "material": 4,
          "mode": 4
        }
      ]
    },
    {
      "name": "Object_7",
      "primitives": [
        {
          "attributes": {
            "NORMAL": 29,
            "POSITION": 28,
            "TEXCOORD_0": 30
          },
          "indices": 31,
          "material": 4,
          "mode": 4
        }
      ]
    },
    {
      "name": "Object_8",
      "primitives": [
        {
          "attributes": {
            "NORMAL": 33,
            "POSITION": 32,
            "TEXCOORD_0": 34
          },
          "indices": 35,
          "material": 5,
          "mode": 4
        }
      ]
    }
  ],
  "nodes": [
    {
      "children": [
        1
      ],
      "matrix": [
        1.0,
        0.0,
        0.0,
        0.0,
        0.0,
        2.220446049250313e-16,
        -1.0,
        0.0,
        0.0,
        1.0,
        2.220446049250313e-16,
        0.0,
        0.0,
        0.0,
        0.0,
        1.0
      ],
      "name": "Sketchfab_model"
    },
    {
      "children": [
        2
      ],
      "name": "root"
    },
    {
      "children": [
        3,
        6,
        8,
        10,
        12,
        14,
        16,
        18
      ],
      "matrix": [
        1.0,
        0.0,
        0.0,
        0.0,
        0.0,
        2.220446049250313e-16,
        1.0,
        0.0,
        0.0,
        -1.0,
        2.220446049250313e-16,
        0.0,
        0.0,
        0.0,
        0.0,
        1.0
      ],
      "name": "GLTF_SceneRootNode"
    },
    {
      "children": [
        4,
        5
      ],
      "matrix": [
        1.0,
        0.0,
        0.0,
        0.0,
        0.0,
        1.0,
        0.0,
        0.0,
        0.0,
        0.0,
        1.0,
        0.0,
        0.004417611751705408,
        0.7161906957626343,
        0.15439675748348236,
        1.0
      ],
      "name": "Sphere.005_58"
    },
    {
      "mesh": 0,
      "name": "Object_4"
    },
    {
      "mesh": 1,
      "name": "Object_5"
    },
    {
      "children": [
        7
      ],
      "matrix": [
        0.9245351004522102,
        0.08366605453757381,
        0.3717994612017844,
        0.0,
        -0.3807966737334659,
        0.24153039335255855,
        0.8925564197071727,
        0.0,
        -0.015124196023254377,
        -0.9667797372747704,
        0.25516308175278046,
        0.0,
        -0.039624013006687164,
        0.7420535683631897,
        0.25798770785331726,
        1.0
      ],
      "name": "Cylinder.008_59"
    },
    {
      "mesh": 2,
      "name": "Object_7"
    },
    {
      "children": [
        9
      ],
      "matrix": [
        1.0,
        0.0,
        0.0,
        0.0,
        0.0,
        0.0,
        1.0,
        0.0,
        0.0,
        -1.0,
        0.0,
        0.0,
        0.05253981053829193,
        0.7478576898574829,
        0.2511412799358368,
        1.0
      ],
      "name": "Cylinder.009_60"
    },
    {
      "mesh": 3,
      "name": "Object_9"
    },
    {
      "children": [
        11
      ],
      "matrix": [
        1.0,
        0.0,
        0.0,
        0.0,
        0.0,
        0.9940804334237836,
        0.10864663770215088,
        0.0,
        0.0,
        -0.10864663770215088,
        0.9940804334237836,
        0.0,
        0.003461501095443964,
        0.6844022274017334,
        0.24802373349666595,
        1.0
      ],
      "name": "Sphere.009_61"
    },
    {
      "mesh": 4,
      "name": "Object_11"
    },
    {
      "children": [
        13
      ],
      "matrix": [
        0.9684866896952405,
        -0.23426353933803729,
        0.0845820667752377,
        0.0,
        -0.08700310722540215,
        -6.971980659464805e-08,
        0.9962080401869482,
        0.0,
        -0.23337521551415885,
        -0.9721731297134326,
        -0.020381723354734094,
        0.0,
        -0.023053759709000587,
        0.634986400604248,
        0.2405748963356018,
        1.0
      ],
      "name": "Plane.011_62"
    },
    {
      "mesh": 5,
      "name": "Object_13"
    },
    {
      "children": [
        15
      ],
      "matrix": [
        0.9665317724476389,
        0.03117390088273414,
        -0.25464587322982307,
        0.0,
        -0.10994981245392449,
        0.947145425545278,
        -0.30137448732432726,
        0.0,
        0.2317916555671763,
        0.31928628340786536,
        0.9188737114734645,
        0.0,
        0.04197465628385544,
        0.7535706758499146,
        0.2715863585472107,
        1.0
      ],
      "name": "Sphere.010_63"
    },
    {
      "mesh": 6,
      "name": "Object_15"
    },
    {
      "children": [
        17
      ],
      "matrix": [
        0.9482173060423722,
        -0.04126164453380552,
        0.3149308133735284,
        0.0,
        0.07710927556431371,
        0.9917680378803583,
        -0.10222680011078733,
        0.0,
        -0.3081202689595299,
        0.12121730787849569,
        0.9435932726164367,
        0.0,
        -0.04351942241191864,
        0.7366091012954712,
        0.2708056569099426,
        1.0
      ],
      "name": "Sphere.011_64"
    },
    {
      "mesh": 7,
      "name": "Object_17"
    },
    {
      "children": [
        19
      ],
      "matrix": [
        1.0,
        0.0,
        0.0,
        0.0,
        0.0,
        1.0,
        0.0,
        0.0,
        0.0,
        0.0,
        1.0,
        0.0,
        -0.0008184669422917068,
        0.7214362621307373,
        0.11085370928049088,
        1.0
      ],
      "name": "Cube.019_65"
    },
    {
      "mesh": 8,
      "name": "Object_19"
    }
  ],
  "scene": 0,
  "scenes": [
    {
      "name": "Sketchfab_Scene",
      "nodes": [
        0
      ]
    }
  ]
}
